# xmcd
#
# Track frame offsets: 
#        150
#        21413
#        43879
#        75771
#        96352
#        125406
#        142158
#        162640
#        174751
#        195600
#        217420
#
# Disc length: 3216 seconds
#
# Revision: 0
# Processed by: cddbd v1.5.2PL0 Copyright (c) Steve Scherf et al.
# Submitted via: ExactAudioCopyFreeDBPlugin 1.0
#
DISCID=9f0c8e0b
DTITLE=Me'Shell NdegéOcello - Ventriloquism
DYEAR=2018
DGENRE=R&B
TTITLE0=I Wonder If I Take You Home
TTITLE1=Nite and Day
TTITLE2=Sometimes It Snows in April
TTITLE3=Waterfalls
TTITLE4=Atomic Dog 2017
TTITLE5=Sensitivity
TTITLE6=Funny How Time Flies (When You're Having Fun)
TTITLE7=Tender Love
TTITLE8=Don't Disturb This Groove
TTITLE9=Private Dancer
TTITLE10=Smooth Operator
EXTD=
EXTT0=
EXTT1=
EXTT2=
EXTT3=
EXTT4=
EXTT5=
EXTT6=
EXTT7=
EXTT8=
EXTT9=
EXTT10=
PLAYORDER=
